<svg width="100" height="100" viewBox="0 0 100 100" fill="none" xmlns="http://www.w3.org/2000/svg">
<circle cx="50" cy="50" r="47" stroke="#206556" stroke-width="6"/>
<line x1="14.8787" y1="80.8787" x2="80.8787" y2="14.8787" stroke="#206556" stroke-width="6"/>
<path d="M67.4853 76.8787L57.5008 65.0625V44.3494H58.7496C59.7855 44.3494 60.6246 43.5103 60.6246 42.4744C60.6246 41.4384 59.7855 40.5994 58.7496 40.5994H55.6258C54.5899 40.5994 53.7508 41.4384 53.7508 42.4744V65.7844C53.7507 66.2486 53.9231 66.6964 54.2346 67.0406L61.8733 76.2599H38.1264L45.7652 67.0406C46.0767 66.6963 46.2491 66.2486 46.2489 65.7843V42.4744C46.2489 41.4385 45.4099 40.5994 44.3739 40.5994H41.2501C40.2142 40.5994 39.3751 41.4385 39.3751 42.4744C39.3751 43.5104 40.2142 44.3494 41.2501 44.3494H42.4989V65.0626L32.5145 76.8788C32.2717 77.148 32.112 77.4818 32.0548 77.8398C31.9976 78.1978 32.0452 78.5647 32.192 78.8962C32.3393 79.2278 32.5796 79.5095 32.8838 79.7072C33.188 79.905 33.543 80.0102 33.9058 80.0101H66.0939C66.4567 80.0102 66.8118 79.905 67.116 79.7072C67.4202 79.5095 67.6605 79.2278 67.8077 78.8962C68.1077 78.2194 67.9821 77.4282 67.4853 76.8788V76.8787ZM48.1249 38.7319C50.1911 38.7319 51.8655 37.0566 51.8655 34.9912C51.8655 32.9278 50.1911 31.2526 48.1249 31.2526C46.0577 31.2526 44.3843 32.9278 44.3843 34.9912C44.3843 37.0566 46.0577 38.7319 48.1249 38.7319ZM60.3405 33.1659C63.9949 33.1659 66.9574 30.2166 66.9574 26.5791C66.9574 22.9416 63.9958 19.9922 60.3405 19.9922C56.6871 19.9922 53.7236 22.9416 53.7236 26.5791C53.7236 30.2166 56.6871 33.1659 60.3405 33.1659ZM60.3114 23.7309C61.8733 23.7309 63.1436 24.9956 63.1436 26.5509C63.1436 28.1053 61.8733 29.3709 60.3114 29.3709C58.7496 29.3709 57.4793 28.1053 57.4793 26.5509C57.4802 24.9956 58.7496 23.7309 60.3114 23.7309Z" fill="#206556"/>
</svg>
