<svg width="100" height="100" viewBox="0 0 100 100" fill="none" xmlns="http://www.w3.org/2000/svg">
<path d="M26.7314 9.69824H73.2676L96.5352 50L73.2686 90.3008H26.7305L3.46387 50L26.7314 9.69824Z" stroke="#206556" stroke-width="6"/>
<path d="M40.75 42.5L45.75 50L40.75 57.5H33.25L28.25 50L33.25 42.5H40.75Z" stroke="#206556" stroke-width="3" stroke-linecap="round" stroke-linejoin="round"/>
<path d="M53.25 50L58.25 42.5L53.25 35H45.75L40.75 42.5L45.75 50M53.25 50H45.75M53.25 50L58.25 57.5M45.75 50L40.75 57.5L45.75 65M53.25 65L58.25 72.5M53.25 65L58.25 57.5M53.25 65H45.75M28.25 35L33.25 42.5M45.75 65L43.25 68.75M33.25 57.5L30.75 61.25M28.25 50H25.75M58.25 57.5H65.75" stroke="#206556" stroke-width="3" stroke-linecap="round" stroke-linejoin="round"/>
<path d="M40.75 73.75C41.4404 73.75 42 73.1904 42 72.5C42 71.8096 41.4404 71.25 40.75 71.25C40.0596 71.25 39.5 71.8096 39.5 72.5C39.5 73.1904 40.0596 73.75 40.75 73.75Z" fill="#206556"/>
<path d="M28.25 66.25C28.9404 66.25 29.5 65.6904 29.5 65C29.5 64.3096 28.9404 63.75 28.25 63.75C27.5596 63.75 27 64.3096 27 65C27 65.6904 27.5596 66.25 28.25 66.25Z" fill="#206556"/>
<path d="M20.75 51.25C21.4404 51.25 22 50.6904 22 50C22 49.3096 21.4404 48.75 20.75 48.75C20.0596 48.75 19.5 49.3096 19.5 50C19.5 50.6904 20.0596 51.25 20.75 51.25Z" fill="#206556"/>
<path d="M70 42.75V29.625" stroke="#206556" stroke-width="2" stroke-linecap="round" stroke-linejoin="round"/>
<path d="M75.25 34.5L70 29.25L64.75 34.5" stroke="#206556" stroke-width="2" stroke-linecap="round" stroke-linejoin="round"/>
</svg>
