<svg width="100" height="100" viewBox="0 0 100 100" fill="none" xmlns="http://www.w3.org/2000/svg">
<path d="M50.0002 78.0002C47.0828 78.0002 44.2695 77.5122 41.5602 76.5362C38.8535 75.5575 36.3602 74.1575 34.0802 72.3362V78.7682C34.0802 79.6962 33.7735 80.4668 33.1602 81.0802C32.5468 81.6935 31.7735 82.0002 30.8402 82.0002H13.3082C12.3802 82.0002 11.6095 81.6935 10.9962 81.0802C10.3828 80.4668 10.0762 79.6962 10.0762 78.7682V68.0002C10.0762 66.4002 10.6028 65.0268 11.6562 63.8802C12.7095 62.7282 14.0028 62.1015 15.5362 62.0002H27.1002C28.1775 62.0002 29.2002 62.2562 30.1682 62.7682C31.1362 63.2802 31.9362 64.0268 32.5682 65.0082C34.6055 67.8642 37.1428 70.0775 40.1802 71.6482C43.2202 73.2162 46.4935 74.0002 50.0002 74.0002C53.5228 74.0002 56.8162 73.2162 59.8802 71.6482C62.9442 70.0802 65.4868 67.8668 67.5082 65.0082C68.1695 64.0295 68.9815 63.2828 69.9442 62.7682C70.9042 62.2562 71.8895 62.0002 72.9002 62.0002H84.4602C86.0095 62.1042 87.3202 62.7308 88.3922 63.8802C89.4642 65.0268 90.0002 66.4002 90.0002 68.0002V78.7682C90.0002 79.6988 89.6935 80.4695 89.0802 81.0802C88.4668 81.6908 87.6962 81.9975 86.7682 82.0002H69.2322C68.3015 82.0002 67.5308 81.6935 66.9202 81.0802C66.3095 80.4668 66.0028 79.6962 66.0002 78.7682V72.2882C63.7708 74.1068 61.2922 75.5135 58.5642 76.5082C55.8415 77.5028 52.9868 78.0002 50.0002 78.0002ZM20.3082 54.9202C17.5882 54.9202 15.2415 53.9335 13.2682 51.9602C11.2948 49.9868 10.3082 47.6402 10.3082 44.9202C10.3082 42.1388 11.2948 39.7775 13.2682 37.8362C15.2415 35.8948 17.5882 34.9242 20.3082 34.9242C23.0922 34.9242 25.4548 35.8948 27.3962 37.8362C29.3375 39.7775 30.3082 42.1402 30.3082 44.9242C30.3082 47.6415 29.3375 49.9882 27.3962 51.9642C25.4548 53.9375 23.0922 54.9242 20.3082 54.9242M79.6922 54.9242C76.9722 54.9242 74.6255 53.9375 72.6522 51.9642C70.6788 49.9882 69.6922 47.6415 69.6922 44.9242C69.6922 42.1402 70.6788 39.7775 72.6522 37.8362C74.6255 35.8948 76.9722 34.9242 79.6922 34.9242C82.4762 34.9242 84.8388 35.8948 86.7802 37.8362C88.7215 39.7775 89.6922 42.1402 89.6922 44.9242C89.6922 47.6415 88.7215 49.9882 86.7802 51.9642C84.8388 53.9375 82.4762 54.9242 79.6922 54.9242ZM50.0002 19.2162C51.4215 17.5602 52.9468 16.2895 54.5762 15.4042C56.2055 14.5188 57.8775 14.0762 59.5922 14.0762C62.1735 14.0762 64.3602 15.0002 66.1522 16.8482C67.9442 18.6962 68.8415 20.9522 68.8442 23.6162C68.8442 26.9228 67.4348 30.1122 64.6162 33.1842C61.7948 36.2562 57.9588 39.8228 53.1082 43.8842C52.1962 44.6282 51.1642 45.0002 50.0122 45.0002C48.8602 45.0002 47.8202 44.6282 46.8922 43.8842C42.0388 39.7748 38.2028 36.1828 35.3842 33.1082C32.5655 30.0335 31.1575 26.7935 31.1602 23.3882C31.1602 20.8202 32.0695 18.6268 33.8882 16.8082C35.7095 14.9868 37.9095 14.0762 40.4882 14.0762C42.2535 14.0762 43.9255 14.5055 45.5042 15.3642C47.0828 16.2228 48.5815 17.5068 50.0002 19.2162ZM50.0002 41.1242C55.1095 37.0842 58.8615 33.6548 61.2562 30.8362C63.6508 28.0175 64.8482 25.5855 64.8482 23.5402C64.8482 21.9935 64.3322 20.6975 63.3002 19.6522C62.2682 18.6068 61.0068 18.0815 59.5162 18.0762C58.1508 18.0762 56.9575 18.5148 55.9362 19.3922C54.9122 20.2695 53.8975 21.2268 52.8922 22.2642L50.0242 25.3162L47.1562 22.3082C46.1188 21.2415 45.0882 20.2695 44.0642 19.3922C43.0428 18.5148 41.8495 18.0762 40.4842 18.0762C38.9908 18.0762 37.7295 18.5882 36.7002 19.6122C35.6682 20.6362 35.1522 21.8935 35.1522 23.3842C35.1522 25.5335 36.3375 28.0042 38.7082 30.7962C41.0788 33.5882 44.8428 37.0308 50.0002 41.1242Z" fill="#206556"/>
</svg>
