<svg width="100" height="100" viewBox="0 0 100 100" fill="none" xmlns="http://www.w3.org/2000/svg">
<path d="M36.3281 51.2812C36.0026 50.4219 36.3086 49.9922 37.2461 49.9922H40.3516C41.224 49.9922 41.8229 50.4414 42.1484 51.3398L48.125 67.6484C48.4245 68.4818 48.6003 69.0417 48.6523 69.3281C48.7044 69.6016 48.763 70.0638 48.8281 70.7148H48.9062C48.9714 70.0638 49.0299 69.6016 49.082 69.3281C49.1341 69.0417 49.3099 68.4818 49.6094 67.6484L55.5859 51.3398C55.9115 50.4414 56.5104 49.9922 57.3828 49.9922H60.4883C61.4258 49.9922 61.7318 50.4219 61.4062 51.2812L52.0703 76.418C51.6797 77.4727 51.0677 78 50.2344 78H47.5C46.6667 78 46.0547 77.4727 45.6641 76.418L36.3281 51.2812Z" fill="#206556"/>
<path d="M14 36H62C73.312 36 78.972 36 82.484 39.516C86 43.028 86 48.688 86 60V64C86 75.312 86 80.972 82.484 84.484C78.972 88 73.312 88 62 88H38C26.688 88 21.028 88 17.516 84.484C14 80.972 14 75.312 14 64V36Z" stroke="#206556" stroke-width="3.375" stroke-linecap="square" stroke-linejoin="round"/>
<path d="M62 35.9924V18.4404C62.0004 17.336 61.7168 16.2501 61.1764 15.2869C60.636 14.3238 59.857 13.5158 58.9143 12.9405C57.9715 12.3653 56.8966 12.0422 55.793 12.0023C54.6893 11.9623 53.5939 12.2069 52.612 12.7124L17.052 31.0004C16.1313 31.4709 15.3588 32.187 14.8201 33.0695C14.2814 33.952 13.9976 34.9665 14 36.0004" stroke="#206556" stroke-width="3.375" stroke-linecap="round" stroke-linejoin="round"/>
</svg>
