<svg xmlns="http://www.w3.org/2000/svg" id="canvas" viewBox="514.920 445.870 1430.693 296.835"><path d="M 575.71,492.03 C 573.72 493.34, 574.12 495.24, 572.60 500.68 C 571.07 506.12, 570.50 509.74, 568.10 519.23 C 565.71 528.71, 564.16 535.22, 560.62 548.12 C 557.08 561.01, 554.75 568.84, 550.41 583.70 C 546.06 598.56, 543.35 607.08, 538.90 622.41 C 534.45 637.74, 531.83 646.10, 528.16 660.34 C 524.49 674.58, 522.57 681.90, 520.53 693.60 C 518.49 705.29, 517.73 710.53, 517.96 718.82 C 518.19 727.11, 518.40 730.91, 521.69 735.03 C 524.99 739.15, 528.76 740.32, 534.43 739.42 C 540.10 738.51, 543.21 735.97, 550.06 730.51 C 556.91 725.04, 560.63 720.89, 568.67 712.11 C 576.71 703.34, 581.39 697.43, 590.28 686.64 C 599.17 675.86, 604.20 669.33, 613.11 658.18 C 622.02 647.04, 626.76 640.85, 634.84 630.92 C 642.92 620.99, 647.00 615.94, 653.50 608.53 C 660.00 601.12, 663.38 597.93, 667.36 593.86 C 671.33 589.78, 672.89 589.17, 673.38 588.14 C 673.87 587.11, 670.84 586.15, 669.81 588.72 C 668.77 591.28, 669.28 594.38, 668.18 600.97 C 667.09 607.56, 666.01 612.55, 664.31 621.66 C 662.61 630.77, 661.34 636.57, 659.70 646.50 C 658.06 656.43, 656.95 662.01, 656.10 671.31 C 655.26 680.61, 654.89 685.28, 655.48 693.00 C 656.06 700.72, 656.37 704.41, 659.03 709.91 C 661.70 715.41, 663.90 718.27, 668.82 720.50 C 673.75 722.73, 677.44 722.79, 683.68 721.05 C 689.91 719.31, 693.15 717.19, 699.99 711.80 C 706.84 706.41, 710.38 702.68, 717.92 694.11 C 725.46 685.54, 729.68 680.12, 737.71 668.95 C 745.75 657.79, 750.11 651.10, 758.10 638.29 C 766.10 625.47, 770.31 618.13, 777.68 604.88 C 785.04 591.63, 788.81 584.63, 794.93 572.02 C 801.05 559.41, 803.78 552.98, 808.29 541.81 C 812.80 530.65, 814.56 525.28, 817.47 516.18 C 820.39 507.08, 821.28 503.04, 822.86 496.30 C 824.43 489.55, 824.99 486.73, 825.36 482.44 C 825.73 478.15, 825.71 476.91, 824.72 474.86 C 823.72 472.81, 821.79 472.56, 820.40 472.20 C 819.00 471.83, 818.12 472.52, 817.74 473.01 C 817.37 473.51, 818.69 474.26, 818.53 474.65 C 818.38 475.04, 817.70 474.50, 816.96 474.94 C 816.22 475.39, 815.10 475.41, 814.82 476.88 C 814.55 478.35, 815.33 478.65, 815.59 482.31 C 815.86 485.97, 816.77 488.70, 816.14 495.18 C 815.51 501.66, 814.85 505.71, 812.46 514.71 C 810.08 523.72, 808.43 529.10, 804.21 540.22 C 799.99 551.34, 797.34 557.75, 791.36 570.31 C 785.38 582.86, 781.65 589.84, 774.31 603.01 C 766.97 616.17, 762.74 623.49, 754.68 636.13 C 746.63 648.78, 742.20 655.40, 734.03 666.24 C 725.85 677.08, 721.46 682.36, 713.81 690.35 C 706.17 698.33, 702.28 701.65, 695.81 706.17 C 689.33 710.70, 686.14 711.70, 681.45 712.97 C 676.77 714.23, 675.42 713.82, 672.38 712.50 C 669.33 711.19, 668.21 710.42, 666.21 706.40 C 664.20 702.37, 663.13 699.27, 662.37 692.36 C 661.60 685.46, 661.65 680.80, 662.38 671.85 C 663.12 662.91, 664.17 657.36, 666.05 647.64 C 667.94 637.93, 669.58 632.27, 671.82 623.29 C 674.06 614.31, 675.67 609.69, 677.23 602.75 C 678.80 595.81, 680.79 592.76, 679.66 588.59 C 678.54 584.42, 675.06 581.82, 671.61 581.92 C 668.15 582.02, 666.80 584.42, 662.38 589.07 C 657.96 593.73, 655.70 597.38, 649.50 605.20 C 643.31 613.01, 639.34 618.10, 631.39 628.16 C 623.45 638.22, 618.71 644.41, 609.77 655.51 C 600.84 666.61, 595.76 673.10, 586.72 683.65 C 577.69 694.20, 572.77 699.96, 564.60 708.25 C 556.43 716.54, 552.22 720.33, 545.87 725.10 C 539.52 729.88, 536.57 730.97, 532.83 732.13 C 529.09 733.29, 529.02 733.62, 527.16 730.91 C 525.29 728.20, 523.96 725.90, 523.52 718.58 C 523.07 711.26, 523.24 705.76, 524.92 694.30 C 526.60 682.84, 528.40 675.46, 531.92 661.29 C 535.44 647.13, 538.03 638.75, 542.52 623.47 C 547.00 608.19, 549.76 599.67, 554.34 584.89 C 558.93 570.10, 561.44 562.31, 565.44 549.54 C 569.45 536.77, 571.40 530.34, 574.39 521.03 C 577.37 511.71, 578.75 508.33, 580.38 502.95 C 582.02 497.56, 583.49 496.28, 582.56 494.10 C 581.62 491.91, 577.71 490.71, 575.71 492.03" style="stroke: black; fill: black;"/><path d="M 816.43,668.50 C 818.75 669.70, 821.00 668.41, 825.67 666.85 C 830.33 665.29, 833.38 663.96, 839.75 660.71 C 846.11 657.46, 850.43 655.26, 857.47 650.59 C 864.51 645.91, 868.33 642.91, 874.93 637.35 C 881.53 631.78, 884.97 628.58, 890.48 622.75 C 895.99 616.91, 898.75 613.82, 902.48 608.18 C 906.21 602.53, 908.13 599.84, 909.14 594.51 C 910.14 589.18, 910.27 585.27, 907.50 581.54 C 904.73 577.81, 901.05 576.17, 895.28 575.85 C 889.52 575.53, 885.99 576.70, 878.66 579.93 C 871.32 583.15, 866.97 585.80, 858.61 591.97 C 850.26 598.14, 845.18 602.46, 836.87 610.78 C 828.56 619.10, 823.86 624.29, 817.05 633.55 C 810.25 642.81, 806.83 648.09, 802.83 657.07 C 798.84 666.06, 797.28 670.78, 797.09 678.49 C 796.91 686.19, 797.78 690.41, 801.91 695.60 C 806.04 700.79, 809.86 702.90, 817.74 704.45 C 825.63 706.00, 830.80 705.59, 841.33 703.34 C 851.87 701.08, 857.89 698.89, 870.43 693.18 C 882.96 687.47, 890.10 683.59, 904.01 674.79 C 917.92 665.99, 925.50 660.51, 939.97 649.17 C 954.44 637.82, 962.10 631.14, 976.36 618.08 C 990.61 605.02, 998.20 597.63, 1011.25 583.86 C 1024.30 570.09, 1030.72 562.50, 1041.61 549.24 C 1052.49 535.98, 1057.63 529.16, 1065.66 517.55 C 1073.68 505.94, 1076.99 500.40, 1081.74 491.19 C 1086.48 481.98, 1088.37 478.23, 1089.39 471.49 C 1090.40 464.75, 1090.12 460.92, 1086.79 457.50 C 1083.46 454.07, 1079.33 453.20, 1072.73 454.38 C 1066.13 455.56, 1062.44 457.68, 1053.80 463.38 C 1045.16 469.09, 1039.99 473.15, 1029.51 482.93 C 1019.03 492.70, 1012.73 499.10, 1001.41 512.28 C 990.09 525.45, 983.58 533.66, 972.90 548.79 C 962.22 563.92, 956.56 572.64, 948.00 587.93 C 939.45 603.23, 935.44 611.48, 930.12 625.26 C 924.81 639.03, 922.76 645.86, 921.42 656.81 C 920.07 667.75, 920.23 672.76, 923.40 679.98 C 926.58 687.20, 929.94 690.28, 937.31 692.91 C 944.69 695.54, 949.81 695.33, 960.29 693.11 C 970.76 690.89, 976.98 688.26, 989.69 681.80 C 1002.40 675.33, 1009.61 670.76, 1023.86 660.79 C 1038.10 650.82, 1046.08 644.55, 1060.90 631.96 C 1075.72 619.36, 1083.79 611.90, 1097.93 597.83 C 1112.08 583.76, 1119.38 575.86, 1131.64 561.62 C 1143.90 547.37, 1149.91 539.69, 1159.24 526.59 C 1168.57 513.49, 1172.58 506.91, 1178.29 496.12 C 1184.01 485.33, 1185.99 480.66, 1187.83 472.64 C 1189.67 464.61, 1190.07 460.74, 1187.50 455.99 C 1184.93 451.24, 1181.25 449.16, 1174.99 448.90 C 1168.73 448.63, 1164.67 450.16, 1156.19 454.68 C 1147.70 459.19, 1142.69 462.72, 1132.57 471.47 C 1122.46 480.23, 1116.39 486.18, 1105.62 498.45 C 1094.84 510.72, 1088.83 518.38, 1078.70 532.81 C 1068.56 547.24, 1063.21 555.60, 1054.96 570.60 C 1046.70 585.59, 1042.74 593.69, 1037.40 607.78 C 1032.06 621.88, 1030.10 628.99, 1028.28 641.07 C 1026.46 653.16, 1026.23 658.88, 1028.31 668.20 C 1030.38 677.51, 1032.65 681.79, 1038.66 687.64 C 1044.67 693.48, 1049.15 695.43, 1058.35 697.42 C 1067.55 699.40, 1073.24 699.13, 1084.68 697.56 C 1096.12 695.99, 1102.69 693.97, 1115.54 689.58 C 1128.38 685.19, 1135.48 681.83, 1148.89 675.62 C 1162.31 669.40, 1169.62 665.41, 1182.61 658.50 C 1195.60 651.58, 1202.46 647.52, 1213.83 641.05 C 1225.21 634.59, 1230.80 631.15, 1239.48 626.17 C 1248.16 621.20, 1252.09 619.46, 1257.24 616.20 C 1262.38 612.93, 1264.61 612.54, 1265.22 609.85 C 1265.83 607.16, 1263.27 603.60, 1260.29 602.77 C 1257.31 601.94, 1254.94 603.27, 1250.32 605.70 C 1245.70 608.14, 1242.94 610.56, 1237.19 614.94 C 1231.44 619.33, 1227.98 622.13, 1221.59 627.63 C 1215.19 633.14, 1211.42 636.31, 1205.20 642.45 C 1198.98 648.60, 1195.60 651.98, 1190.50 658.37 C 1185.39 664.75, 1182.85 668.07, 1179.66 674.37 C 1176.48 680.68, 1174.96 683.98, 1174.58 689.88 C 1174.19 695.78, 1174.66 699.38, 1177.73 703.87 C 1180.81 708.37, 1183.82 710.30, 1189.96 712.33 C 1196.09 714.36, 1199.99 714.45, 1208.40 714.03 C 1216.81 713.60, 1221.72 712.68, 1231.99 710.19 C 1242.25 707.70, 1248.15 705.72, 1259.73 701.57 C 1271.32 697.42, 1277.88 694.65, 1289.91 689.44 C 1301.93 684.23, 1308.39 681.12, 1319.85 675.52 C 1331.31 669.92, 1337.20 666.74, 1347.21 661.46 C 1357.21 656.18, 1362.08 653.39, 1369.89 649.12 C 1377.70 644.86, 1381.11 643.13, 1386.25 640.14 C 1391.39 637.15, 1394.07 637.03, 1395.58 634.17 C 1397.09 631.30, 1395.91 628.28, 1393.81 625.79 C 1391.70 623.30, 1388.88 621.39, 1385.04 621.71 C 1381.20 622.03, 1379.09 624.41, 1374.59 627.39 C 1370.08 630.37, 1367.55 632.43, 1362.50 636.63 C 1357.45 640.82, 1354.48 643.24, 1349.36 648.35 C 1344.24 653.46, 1341.37 656.41, 1336.91 662.17 C 1332.44 667.93, 1330.10 671.14, 1327.03 677.14 C 1323.96 683.14, 1322.45 686.34, 1321.56 692.18 C 1320.67 698.02, 1320.56 701.43, 1322.59 706.32 C 1324.63 711.22, 1327.03 713.93, 1331.74 716.65 C 1336.46 719.37, 1339.91 719.87, 1346.17 719.93 C 1352.43 720.00, 1356.09 719.12, 1363.04 716.96 C 1369.98 714.81, 1373.84 713.01, 1380.88 709.16 C 1387.92 705.31, 1391.82 702.82, 1398.23 697.71 C 1404.63 692.60, 1407.94 689.50, 1412.91 683.63 C 1417.88 677.76, 1420.05 674.45, 1423.08 668.35 C 1426.10 662.26, 1427.12 659.01, 1428.02 653.17 C 1428.93 647.33, 1428.56 644.23, 1427.61 639.14 C 1426.65 634.05, 1425.34 631.57, 1423.27 627.72 C 1421.21 623.86, 1420.02 621.16, 1417.27 619.86 C 1414.53 618.56, 1411.65 619.23, 1409.54 621.21 C 1407.43 623.19, 1405.97 627.16, 1406.74 629.78 C 1407.52 632.40, 1409.34 633.59, 1413.40 634.30 C 1417.46 635.02, 1420.59 633.81, 1427.05 633.36 C 1433.50 632.90, 1437.51 632.61, 1445.69 632.02 C 1453.86 631.43, 1458.75 631.05, 1467.92 630.39 C 1477.08 629.73, 1482.34 629.17, 1491.51 628.71 C 1500.68 628.25, 1505.66 627.88, 1513.76 628.11 C 1521.86 628.33, 1526.09 628.66, 1532.01 629.83 C 1537.93 631.00, 1540.54 632.08, 1543.34 633.96 C 1546.14 635.83, 1546.15 636.10, 1546.02 639.20 C 1545.89 642.31, 1545.29 644.54, 1542.68 649.48 C 1540.08 654.43, 1537.56 658.04, 1532.99 663.94 C 1528.41 669.85, 1524.85 673.64, 1519.81 679.01 C 1514.77 684.37, 1510.89 686.67, 1507.78 690.77 C 1504.68 694.87, 1503.46 697.01, 1504.30 699.51 C 1505.15 702.00, 1508.10 704.40, 1512.00 703.23 C 1515.90 702.07, 1517.62 698.51, 1523.80 693.68 C 1529.97 688.84, 1534.37 685.22, 1542.88 679.08 C 1551.38 672.94, 1556.76 668.99, 1566.32 662.98 C 1575.87 656.97, 1581.59 653.54, 1590.65 649.01 C 1599.70 644.48, 1604.69 642.45, 1611.59 640.31 C 1618.49 638.18, 1621.87 638.38, 1625.16 638.34 C 1628.44 638.30, 1627.69 638.57, 1628.02 640.10 C 1628.34 641.63, 1628.22 642.33, 1626.80 646.00 C 1625.37 649.67, 1623.86 653.09, 1620.89 658.43 C 1617.92 663.78, 1615.33 667.43, 1611.94 672.73 C 1608.56 678.03, 1605.42 680.35, 1603.97 684.92 C 1602.52 689.48, 1602.52 692.94, 1604.70 695.57 C 1606.88 698.19, 1610.01 699.27, 1614.86 698.04 C 1619.71 696.81, 1622.17 693.73, 1628.96 689.42 C 1635.76 685.11, 1640.28 681.89, 1648.84 676.51 C 1657.39 671.14, 1662.66 667.63, 1671.74 662.54 C 1680.82 657.46, 1686.01 654.66, 1694.25 651.09 C 1702.48 647.52, 1706.99 646.02, 1712.92 644.67 C 1718.84 643.33, 1721.45 644.03, 1723.89 644.36 C 1726.32 644.68, 1725.14 644.46, 1725.09 646.32 C 1725.03 648.18, 1724.80 649.61, 1723.61 653.64 C 1722.43 657.68, 1721.03 661.01, 1719.15 666.51 C 1717.26 672.01, 1715.50 675.35, 1714.19 681.15 C 1712.88 686.94, 1711.60 690.27, 1712.60 695.50 C 1713.61 700.72, 1715.05 704.19, 1719.23 707.28 C 1723.41 710.38, 1726.76 710.87, 1733.51 710.96 C 1740.26 711.05, 1744.23 710.13, 1752.97 707.75 C 1761.70 705.36, 1766.86 703.40, 1777.19 699.03 C 1787.53 694.66, 1793.61 691.71, 1804.64 685.89 C 1815.67 680.08, 1821.98 676.42, 1832.34 669.96 C 1842.69 663.49, 1848.03 659.82, 1856.42 653.59 C 1864.80 647.35, 1868.68 644.23, 1874.25 638.79 C 1879.81 633.35, 1882.67 631.30, 1884.23 626.40 C 1885.80 621.50, 1885.18 617.09, 1882.08 614.28 C 1878.98 611.46, 1874.90 611.44, 1868.75 612.31 C 1862.59 613.18, 1858.77 614.88, 1851.29 618.61 C 1843.81 622.35, 1839.14 625.20, 1831.34 630.99 C 1823.54 636.79, 1818.85 640.57, 1812.29 647.61 C 1805.74 654.64, 1802.18 658.69, 1798.58 666.17 C 1794.97 673.65, 1793.50 677.96, 1794.28 685.01 C 1795.05 692.06, 1796.90 695.98, 1802.46 701.44 C 1808.02 706.89, 1812.38 709.05, 1822.08 712.28 C 1831.77 715.51, 1838.10 716.35, 1850.92 717.58 C 1863.74 718.82, 1872.77 718.55, 1886.16 718.47 C 1899.55 718.38, 1907.18 717.78, 1917.86 717.15 C 1928.55 716.52, 1935.30 716.60, 1939.56 715.31 C 1943.82 714.02, 1943.56 711.26, 1939.17 710.70 C 1934.78 710.13, 1928.21 711.93, 1917.60 712.50 C 1907.00 713.06, 1899.37 713.54, 1886.14 713.53 C 1872.91 713.53, 1863.88 713.81, 1851.44 712.47 C 1839.00 711.13, 1832.83 709.96, 1823.94 706.83 C 1815.05 703.70, 1811.57 701.32, 1806.98 696.82 C 1802.38 692.32, 1801.46 689.89, 1800.96 684.34 C 1800.47 678.79, 1801.30 675.53, 1804.51 669.08 C 1807.73 662.63, 1810.86 658.56, 1817.05 652.09 C 1823.23 645.62, 1827.88 641.90, 1835.43 636.72 C 1842.99 631.54, 1847.84 629.18, 1854.82 626.18 C 1861.79 623.18, 1865.94 622.62, 1870.32 621.72 C 1874.70 620.82, 1875.48 621.38, 1876.74 621.70 C 1877.99 622.02, 1878.05 620.80, 1876.62 623.32 C 1875.18 625.83, 1874.25 629.07, 1869.56 634.28 C 1864.87 639.49, 1861.14 643.06, 1853.18 649.36 C 1845.21 655.66, 1839.90 659.39, 1829.73 665.80 C 1819.55 672.20, 1813.25 675.83, 1802.31 681.40 C 1791.37 686.97, 1785.24 689.78, 1775.03 693.66 C 1764.83 697.54, 1759.54 699.10, 1751.29 700.80 C 1743.05 702.51, 1739.01 702.51, 1733.81 702.19 C 1728.62 701.87, 1727.40 700.80, 1725.30 699.19 C 1723.21 697.57, 1723.41 697.17, 1723.34 694.11 C 1723.28 691.04, 1723.64 688.62, 1724.98 683.86 C 1726.32 679.10, 1728.10 675.84, 1730.06 670.32 C 1732.02 664.80, 1733.75 661.66, 1734.78 656.26 C 1735.80 650.87, 1737.00 647.49, 1735.18 643.35 C 1733.36 639.21, 1730.50 636.74, 1725.68 635.58 C 1720.86 634.42, 1717.87 635.61, 1711.07 637.57 C 1704.27 639.53, 1700.14 641.47, 1691.69 645.40 C 1683.24 649.33, 1678.09 652.20, 1668.81 657.23 C 1659.53 662.25, 1654.11 665.58, 1645.28 670.52 C 1636.45 675.47, 1631.54 678.36, 1624.65 681.97 C 1617.77 685.58, 1613.92 686.46, 1610.87 688.57 C 1607.81 690.68, 1608.68 692.18, 1609.36 692.52 C 1610.03 692.85, 1611.88 693.05, 1614.25 690.24 C 1616.62 687.43, 1618.00 683.81, 1621.21 678.47 C 1624.42 673.13, 1627.15 669.45, 1630.29 663.54 C 1633.44 657.64, 1635.65 654.51, 1636.92 648.96 C 1638.20 643.42, 1638.96 639.55, 1636.66 635.80 C 1634.37 632.05, 1630.88 630.58, 1625.44 630.23 C 1620.00 629.88, 1616.95 631.31, 1609.47 634.04 C 1601.99 636.78, 1597.27 639.11, 1588.04 643.92 C 1578.81 648.73, 1573.13 652.21, 1563.32 658.11 C 1553.51 664.00, 1547.92 667.69, 1539.01 673.41 C 1530.11 679.12, 1525.31 682.40, 1518.78 686.69 C 1512.25 690.98, 1508.51 691.94, 1506.35 694.86 C 1504.19 697.79, 1506.20 700.74, 1507.99 701.30 C 1509.77 701.87, 1511.59 700.94, 1515.27 697.67 C 1518.96 694.40, 1521.49 690.63, 1526.41 684.95 C 1531.32 679.27, 1535.00 675.54, 1539.86 669.27 C 1544.72 663.00, 1547.64 659.70, 1550.71 653.62 C 1553.79 647.53, 1555.67 644.19, 1555.22 638.85 C 1554.76 633.51, 1552.81 630.21, 1548.44 626.90 C 1544.07 623.58, 1540.27 623.38, 1533.35 622.28 C 1526.43 621.17, 1522.28 621.37, 1513.85 621.37 C 1505.42 621.37, 1500.46 621.82, 1491.20 622.26 C 1481.94 622.69, 1476.68 623.23, 1467.55 623.55 C 1458.42 623.86, 1453.53 624.15, 1445.54 623.86 C 1437.55 623.56, 1433.56 623.13, 1427.61 622.05 C 1421.66 620.98, 1419.37 618.92, 1415.79 618.48 C 1412.22 618.04, 1411.56 618.02, 1409.72 619.85 C 1407.89 621.69, 1407.20 624.98, 1406.63 627.66 C 1406.07 630.34, 1405.84 631.60, 1406.90 633.25 C 1407.97 634.90, 1409.94 634.14, 1411.95 635.91 C 1413.96 637.68, 1415.57 638.86, 1416.95 642.11 C 1418.32 645.36, 1419.06 647.59, 1418.81 652.15 C 1418.56 656.70, 1418.04 659.56, 1415.70 664.89 C 1413.36 670.22, 1411.52 673.40, 1407.10 678.79 C 1402.68 684.18, 1399.58 687.18, 1393.60 691.85 C 1387.62 696.53, 1383.80 698.85, 1377.21 702.17 C 1370.61 705.49, 1366.78 706.90, 1360.62 708.46 C 1354.46 710.03, 1351.15 710.20, 1346.41 710.00 C 1341.67 709.79, 1339.78 708.98, 1336.92 707.44 C 1334.07 705.91, 1333.32 705.10, 1332.14 702.32 C 1330.95 699.53, 1330.45 697.77, 1331.00 693.52 C 1331.54 689.26, 1332.34 686.25, 1334.85 681.02 C 1337.36 675.79, 1339.44 672.60, 1343.55 667.35 C 1347.67 662.11, 1350.43 659.23, 1355.43 654.78 C 1360.44 650.33, 1363.46 648.17, 1368.56 645.09 C 1373.67 642.01, 1376.64 641.09, 1380.96 639.38 C 1385.28 637.67, 1387.91 638.32, 1390.16 636.54 C 1392.40 634.75, 1392.48 632.33, 1392.20 630.47 C 1391.91 628.60, 1390.80 626.58, 1388.75 627.23 C 1386.69 627.87, 1386.28 630.30, 1381.92 633.69 C 1377.56 637.07, 1374.36 639.45, 1366.95 644.15 C 1359.55 648.85, 1354.71 651.72, 1344.89 657.18 C 1335.07 662.65, 1329.22 665.85, 1317.86 671.45 C 1306.50 677.06, 1300.05 680.14, 1288.09 685.21 C 1276.14 690.27, 1269.55 692.95, 1258.07 696.78 C 1246.59 700.60, 1240.66 702.35, 1230.69 704.33 C 1220.72 706.31, 1215.81 706.70, 1208.22 706.66 C 1200.63 706.62, 1197.32 705.71, 1192.75 704.11 C 1188.17 702.51, 1187.23 701.38, 1185.35 698.64 C 1183.46 695.91, 1183.05 694.62, 1183.31 690.44 C 1183.57 686.27, 1184.11 683.30, 1186.66 677.77 C 1189.22 672.23, 1191.39 668.82, 1196.08 662.77 C 1200.77 656.71, 1204.04 653.31, 1210.11 647.50 C 1216.19 641.69, 1219.91 638.55, 1226.44 633.71 C 1232.98 628.86, 1236.82 626.75, 1242.78 623.29 C 1248.75 619.83, 1252.17 618.81, 1256.27 616.40 C 1260.36 613.98, 1262.35 613.42, 1263.27 611.22 C 1264.19 609.01, 1262.87 605.54, 1260.88 605.36 C 1258.90 605.18, 1258.17 607.01, 1253.36 610.30 C 1248.54 613.59, 1245.14 616.39, 1236.81 621.80 C 1228.48 627.20, 1222.90 630.71, 1211.69 637.35 C 1200.47 643.98, 1193.63 648.06, 1180.72 654.97 C 1167.82 661.88, 1160.51 665.82, 1147.18 671.89 C 1133.86 677.96, 1126.74 681.17, 1114.11 685.30 C 1101.47 689.42, 1094.94 691.16, 1084.02 692.51 C 1073.10 693.86, 1067.82 693.80, 1059.49 692.05 C 1051.16 690.30, 1047.68 688.74, 1042.37 683.76 C 1037.07 678.77, 1034.98 675.54, 1032.97 667.12 C 1030.96 658.70, 1030.78 653.27, 1032.34 641.65 C 1033.90 630.04, 1035.66 622.93, 1040.77 609.04 C 1045.89 595.16, 1049.78 587.08, 1057.93 572.24 C 1066.09 557.39, 1071.42 549.06, 1081.55 534.83 C 1091.68 520.60, 1097.73 513.00, 1108.57 501.09 C 1119.40 489.17, 1125.64 483.42, 1135.73 475.24 C 1145.82 467.06, 1151.17 464.06, 1159.02 460.20 C 1166.87 456.34, 1170.44 456.18, 1174.97 455.95 C 1179.51 455.71, 1180.15 455.91, 1181.70 459.03 C 1183.24 462.15, 1184.12 464.49, 1182.72 471.54 C 1181.32 478.59, 1179.94 483.66, 1174.70 494.28 C 1169.46 504.91, 1165.58 511.60, 1156.51 524.67 C 1147.44 537.75, 1141.49 545.45, 1129.35 559.66 C 1117.22 573.87, 1109.95 581.75, 1095.85 595.73 C 1081.76 609.71, 1073.68 617.14, 1058.88 629.56 C 1044.07 641.98, 1036.04 648.16, 1021.81 657.83 C 1007.59 667.49, 1000.26 671.84, 987.75 677.88 C 975.23 683.92, 968.96 686.06, 959.23 688.02 C 949.50 689.98, 945.33 689.71, 939.09 687.69 C 932.86 685.67, 930.75 684.00, 928.06 677.92 C 925.38 671.84, 924.60 667.57, 925.69 657.30 C 926.78 647.02, 928.48 640.10, 933.52 626.54 C 938.56 612.99, 942.47 604.71, 950.89 589.54 C 959.31 574.38, 964.95 565.68, 975.62 550.72 C 986.28 535.75, 992.82 527.60, 1004.22 514.72 C 1015.61 501.85, 1022.04 495.59, 1032.60 486.34 C 1043.16 477.10, 1048.69 473.45, 1057.01 468.49 C 1065.33 463.54, 1069.28 462.74, 1074.19 461.57 C 1079.10 460.41, 1079.73 460.86, 1081.57 462.67 C 1083.41 464.47, 1084.20 465.29, 1083.40 470.59 C 1082.61 475.89, 1081.75 480.18, 1077.59 489.16 C 1073.43 498.14, 1070.30 503.88, 1062.61 515.49 C 1054.92 527.10, 1049.83 533.96, 1039.12 547.22 C 1028.41 560.48, 1022.02 568.07, 1009.06 581.79 C 996.09 595.51, 988.53 602.88, 974.31 615.84 C 960.09 628.80, 952.42 635.43, 937.96 646.59 C 923.51 657.74, 915.91 663.13, 902.03 671.62 C 888.16 680.11, 880.96 683.79, 868.60 689.04 C 856.24 694.28, 850.17 696.05, 840.25 697.87 C 830.32 699.68, 825.61 699.38, 818.99 698.09 C 812.37 696.80, 810.27 695.31, 807.14 691.42 C 804.01 687.53, 803.17 685.06, 803.34 678.64 C 803.51 672.22, 804.38 667.71, 807.98 659.32 C 811.57 650.93, 814.77 645.61, 821.33 636.70 C 827.89 627.78, 832.56 622.63, 840.76 614.75 C 848.97 606.87, 854.17 602.74, 862.36 597.29 C 870.54 591.83, 875.17 589.77, 881.67 587.45 C 888.18 585.13, 891.42 585.62, 894.89 585.67 C 898.36 585.72, 898.07 586.32, 899.02 587.71 C 899.98 589.10, 900.38 589.39, 899.67 592.62 C 898.97 595.85, 898.41 598.80, 895.51 603.85 C 892.60 608.89, 890.17 612.23, 885.14 617.83 C 880.11 623.42, 876.74 626.63, 870.36 631.84 C 863.98 637.05, 860.15 639.78, 853.25 643.89 C 846.35 648.01, 842.06 649.76, 835.85 652.41 C 829.64 655.07, 826.53 655.47, 822.18 657.16 C 817.82 658.84, 815.22 658.57, 814.07 660.84 C 812.93 663.11, 814.12 667.30, 816.43 668.50" style="stroke: black; fill: black;"/></svg>