<svg id="logo" xmlns="http://www.w3.org/2000/svg" width="335" height="75" viewBox="0 0 335 75">
  <rect width="335" height="75" fill="#fedf05"/>
  <path data-name="Path 124" d="M246.052,34.52h.338c2.6,0,3.79,1.243,3.587,3.56-.258,2.936-2.622,5.421-5.164,5.421a3.494,3.494,0,0,1-.673-.056Zm10.211,29.2L252.1,48.076c4.805-1.976,7.514-5.818,7.993-11.3.291-3.333-.591-6.157-2.461-8.021-1.875-1.807-5.016-2.712-9.591-2.712H237.811l-7.928,37.676h10l2.29-10.676c.2-.961.2-.961.887-4.972.132,1.074.453,3.221.91,6.383l1.45,9.265Zm-50.641,0h18.64l1.864-9.037h-8.586l1.239-5.762h7.683l1.819-8.529h-7.739l1.158-5.479h8.585l1.906-8.868H213.551ZM191.185,41.976l-1.653,7.907h3.728c-.811,3.447-2.514,5.481-4.659,5.481-1.978,0-2.794-1.639-2.492-5.084a48.008,48.008,0,0,1,2-9.265c1.412-4.519,3.058-6.552,5.26-6.552,1.413,0,2.3,1.526,2.108,3.672l-.019.225,10.489-3.672c-1.382-6.157-5-9.319-10.821-9.319-5.592,0-10.42,2.881-14.016,8.473a35.563,35.563,0,0,0-5.035,15.59c-.83,9.491,3.152,14.969,10.892,14.969,5.987,0,11.024-3.333,14.212-9.434,1.627-3.106,2.8-6.834,4.017-12.992ZM141.823,63.723h9.546l2.026-9.6c.769-3.613,1.266-6.721,1.961-12.087.163,2.656.3,3.673.895,7.851l2.122,13.84h9.547l7.927-37.676H166.3l-1.814,8.472a126.281,126.281,0,0,0-1.81,14.236c-.716-6.665-.7-6.892-1.146-9.491L159.3,26.047h-9.547Zm-24.261,0H136.2l1.864-9.037H129.48l1.239-5.762H138.4L140.22,40.4h-7.74l1.158-5.479h8.587l1.9-8.868h-18.64Zm-24.183-.96A16.863,16.863,0,0,0,100.41,64.4c7.626,0,14.233-6.44,14.945-14.575.3-3.444-.883-6.044-3.984-8.7-2.575-2.2-2.925-2.712-2.821-3.9a3.14,3.14,0,0,1,3.159-2.543c2.033,0,3.929,1.582,5.005,4.124l2.478-11.524a12.849,12.849,0,0,0-16.681,2.769,16.667,16.667,0,0,0-4.245,9.151c-.307,3.5.874,6.157,4.052,9.208,2.5,2.372,2.654,2.6,2.545,3.84a3.322,3.322,0,0,1-3.522,2.825c-2.2,0-4.115-1.412-5.459-4.124Zm-23.589,0A16.869,16.869,0,0,0,76.821,64.4c7.626,0,14.235-6.44,14.945-14.575.3-3.444-.883-6.044-3.983-8.7-2.574-2.2-2.926-2.712-2.823-3.9a3.144,3.144,0,0,1,3.16-2.543c2.034,0,3.929,1.582,5.007,4.124L95.6,27.289a12.848,12.848,0,0,0-16.68,2.769,16.65,16.65,0,0,0-4.246,9.151c-.306,3.5.874,6.157,4.053,9.208,2.5,2.372,2.654,2.6,2.545,3.84a3.324,3.324,0,0,1-3.524,2.825c-2.2,0-4.113-1.412-5.457-4.124Zm-23.654.96h18.64l1.864-9.037H58.054l1.237-5.762h7.683L68.794,40.4H61.055l1.157-5.479H70.8L72.7,26.047H54.063Zm-5.169,0L45.28,26.047H32.909l-5.375,13.67C26.593,42.09,26,43.729,25.281,46.1c.326-2.429.486-3.615.565-4.519.068-.79.147-1.694.19-2.825l.547-12.709H14.1L1.878,63.723H12.611l4.2-15.7c.277-1.243.561-2.542.834-3.727.527-2.146.531-2.2,1.077-4.575-.183,1.467-.267,2.429-.4,3.953l-.168,1.921-.909,18.132h8.133l6.665-16.776c1.155-2.882,1.771-4.745,2.552-7.23-.231,1.356-.341,1.976-.436,2.429l-.435,2.372c-.025.282-.151,1.073-.347,2.034L30.517,63.723Z" transform="translate(31.332 -7.618)" fill="#161615"/>
</svg>
