<?xml version='1.0' encoding='UTF-8'?>
<svg xmlns="http://www.w3.org/2000/svg" baseprofile="tiny" fill="#ececec" stroke="black" stroke-linecap="round" stroke-linejoin="round" stroke-width=".2" version="1.2" viewbox="0 0 2000 857" viewBox="600.5 63.7 630.8 361.4">
 <path d="M1088 228l0.4 1.2 1.4-0.6 1.2 1.7 1.3 0.7 0.6 2.3-0.5 2.2 1 2.7 2.3 1.5 0.1 1.7-1.7 0.9-0.1 2.1-2.2 3.1-0.9-0.4-0.2-1.4-3.1-2.2-0.7-3 0.1-4.4 0.5-1.9-0.9-1-0.5-2.1 1.9-3.1z" id="AL" name="Albania">
 </path>
 <path d="M1230.8 253l-1.8 0.2-2.8-3.7-0.2-1-2.3 0-1.9-1.7-1 0.1-2.4-1.8-4.2-1.6-0.1-3.1-1.3-2.2 7-1 1.4 1.6 2.2 1.1-0.7 1.6 3.2 2.2-1.1 2.1 2.6 1.7 2.5 1 0.9 4.5z" id="AM" name="Armenia">
 </path>
 <path d="M1070.6 190.8l-0.3 0.8 0.7 2.1-0.2 2.6-2.8 0 1.1 1.4-1.3 4-0.9 1.1-4.4 0.1-2.4 1.5-4.2-0.5-7.3-1.7-1.3-2.1-4.9 1.1-0.5 1.2-3.1-0.9-2.6-0.2-2.3-1.2 0.7-1.5-0.2-1.1 1.4-0.3 2.7 1.7 0.6-1.7 4.4 0.3 3.5-1.1 2.4 0.2 1.7 1.3 0.4-1.1-1-4.1 1.7-0.8 1.6-2.9 3.8 2.1 2.6-2.6 1.7-0.5 4 1.9 2.3-0.3 2.4 1.2z" id="AT" name="Austria">
 </path>
 <path d="M1016.5 177.1l-0.4 4.2-1.3 0.2-0.4 3.5-4.4-2.9-2.5 0.5-3.5-2.9-2.4-2.5-2.2-0.1-0.8-2.2 3.9-1.2 3.6 0.5 4.5-1.3 3.1 2.7 2.8 1.5z" id="BE" name="Belgium">
 </path>
 <path d="M1132.6 221.6l-2.3 2.6-1.3 4.5 2.1 3.6-4.6-0.8-5 2 0.3 3.2-4.6 0.6-3.9-2.3-4 1.8-3.8-0.2-0.8-4.2-2.8-2.1 0.7-0.8-0.6-0.8 0.6-2 1.8-2-2.8-2.7-0.7-2.4 1.1-1.4 1.8 2.6 1.9-0.4 4 0.9 7.6 0.4 2.3-1.6 5.9-1.5 4 2.3 3.1 0.7z" id="BG" name="Bulgaria">
 </path>
 <path d="M1083 214.3l1.9-0.1-1.1 2.8 2.7 2.5-0.5 2.9-1.1 0.3-0.9 0.6-1.6 1.5-0.4 3.5-4.8-2.4-2.1-2.7-2.1-1.4-2.5-2.4-1.3-1.9-2.7-3 0.8-2.6 2 1.5 1-1.4 2.3-0.1 4.5 1.1 3.5-0.1 2.4 1.4z" id="BA" name="Bosnia and Herzegovina">
 </path>
 <path d="M1141.6 162.7l-3.9-0.2-0.8 0.6 1.5 2 2 4-4.1 0.3-1.3 1.4 0.3 3.1-2.1-0.6-4.3 0.3-1.5-1.5-1.7 1.1-1.9-0.9-3.9-0.1-5.7-1.5-4.9-0.5-3.8 0.2-2.4 1.6-2.3 0.3-0.5-2.8-1.9-2.8 2.8-1.3-0.4-2.4-1.7-2.3-0.6-2.7 4.7 0 4.8-2.3 0.5-3.4 3.6-2-1-2.7 2.7-1 4.6-2.3 5.3 1.5 0.9 1.5 2.4-0.7 4.8 1.4 1.1 2.9-0.7 1.6 3.8 4 2.1 1.1 0 1.1 3.4 1.1 1.7 1.6-1.6 1.3z" id="BY" name="Belarus">
 </path>
 <path d="M1034.4 197.5l0.2 1.1-0.7 1.5 2.3 1.2 2.6 0.2-0.3 2.5-2.1 1.1-3.8-0.8-1 2.5-2.4 0.2-0.9-1-2.7 2.2-2.5 0.3-2.2-1.4-1.8-2.7-2.4 1 0-2.9 3.6-3.5-0.2-1.6 2.3 0.6 1.3-1.1 4.2 0 1-1.3 5.5 1.9z" id="CH" name="Switzerland">
 </path>
 <path d="M1059.7 175.2l2.5 2 3.7 0.5-0.2 1.7 2.8 1.3 0.6-1.6 3.4 0.7 0.7 2 3.7 0.3 2.6 3.1-1.5 0-0.7 1.1-1.1 0.3-0.2 1.4-0.9 0.3-0.1 0.6-1.6 0.6-2.2-0.1-0.6 1.4-2.4-1.2-2.3 0.3-4-1.9-1.7 0.5-2.6 2.6-3.8-2.1-3-2.6-2.6-1.5-0.7-2.7-1-1.8 3.4-1.3 1.7-1.6 3.5-1.2 1.1-1.2 1.3 0.7 2.2-0.6z" id="CZ" name="Czech Republic" class="available-country">
 </path>
 <path d="M1053.9 158.9l1.4 3.1-1.2 1.7 1.9 2.1 1.5 3.3-0.2 2.2 2.4 3.9-2.2 0.6-1.3-0.7-1.1 1.2-3.5 1.2-1.7 1.6-3.4 1.3 1 1.8 0.7 2.7 2.6 1.5 3 2.6-1.6 2.9-1.7 0.8 1 4.1-0.4 1.1-1.7-1.3-2.4-0.2-3.5 1.1-4.4-0.3-0.6 1.7-2.7-1.7-1.4 0.3-5.5-1.9-1 1.3-4.2 0 0.4-4.5 2.4-4.2-7.2-1.2-2.4-1.6 0.2-2.7-1-1.4 0.4-4.2-1.1-6.5 2.9 0 1.2-2.3 0.9-5.6-0.9-2.1 0.8-1.3 4-0.3 1 1.3 3.1-3-1.3-2.3-0.4-3.4 3.7 0.8 2.9-0.9 0.3 2.3 4.9 1.4 0.1 2.2 4.7-1.2 2.6-1.6 5.6 2.4 2.4 1.9z" id="DE" name="Germany" class="available-country">
 </path>
 <path d="M1113.7 124.6l0.9 1-2.6 3.4 2.4 5.6-1.6 1.9-3.8-0.1-4.4-2.2-2.1-0.7-3.8 1-0.1-3.5-1.5 0.8-3.3-2.1-1-3.4 5.5-1.7 5.6-0.8 5.1 0.9 4.7-0.1z" id="EE" name="Estonia">
 </path>
 <path d="M1104.1 70.1l0.4 3.8 7.3 3.7-2.9 4.2 6.5 6.3-1.7 4.8 4.9 4.2-0.9 3.8 7.4 3.9-0.9 2.9-3.4 3.4-8 7.4-8 0.5-7.6 2.1-7.1 1.3-3.2-3.2-4.7-1.9 0.1-5.8-3-5.2 1.6-3.4 3.3-3.5 8.8-6.2 2.6-1.2-0.9-2.4-6.5-2.6-1.8-2.2-1.8-8.5-7.2-3.7-6-2.7 2.2-1.4 5.1 2.8 5.3-0.2 4.7 1.3 3.4-2.4 1.1-4 5.9-1.8 5.8 2.1-0.8 3.8z" id="FI" name="Finland">
 </path>
 <path d="M1215.7 227.9l5.1 1.3 2.1 2.6 3.6 1.5-1.2 0.8 3.3 3.5-0.6 0.7-2.9-0.3-4.2-1.9-1.1 1.1-7 1-5.6-3.2-5.5 0.3 0.3-2.7-2.1-4.3-3.4-2.4-3-0.7-2.2-1.9 0.4-0.8 4.6 1.1 7.7 1 7.6 3.1 1.2 1.2 2.9-1z" id="GE" name="Georgia">
 </path>
 <path d="M1081.5 207.6l1.5 2.5 1.7 1.8-1.7 2.4-2.4-1.4-3.5 0.1-4.5-1.1-2.3 0.1-1 1.4-2-1.5-0.8 2.6 2.7 3 1.3 1.9 2.5 2.4 2.1 1.4 2.1 2.7 4.8 2.4-0.5 1-5-2.3-3.2-2.3-4.8-1.9-4.7-4.6 1-0.5-2.5-2.7-0.3-2.1-3.3-1-1.4 2.7-1.6-2.1 0-2.2 0.1-0.1 3.6 0.2 0.8-1 1.8 1 2 0.1-0.1-1.7 1.7-0.7 0.3-2.5 3.9-1.7 1.6 0.8 4 2.7 4.3 1.2 1.8-1z" id="HR" name="Croatia">
 </path>
 <path d="M1096.2 191.9l3 1.7 0.5 1.7-2.9 1.3-1.9 4.2-2.6 4.3-3.9 1.2-3.2-0.3-3.7 1.6-1.8 1-4.3-1.2-4-2.7-1.6-0.8-1.2-2.1-0.8-0.1 1.3-4-1.1-1.4 2.8 0 0.2-2.6 2.7 1.7 1.9 0.6 4.1-0.7 0.3-1.3 1.9-0.2 2.3-0.9 0.6 0.4 2.3-0.8 1-1.5 1.6-0.4 5.5 1.9 1-0.6z" id="HU" name="Hungary">
 </path>
 <path d="M956.7 158.2l0.7 4.4-3.9 5.5-8.8 3.6-6.8-0.9 4.3-6.4-2.1-6.2 6.7-4.8 3.7-2.8 0.9 3.2-1.2 3.3 3-0.1 3.5 1.2z" id="IE" name="Ireland">
 </path>
 <path d="M924.8 84.5l-1.4 3.6 4.4 3.8-6.1 4.3-13.1 3.9-3.9 1.1-5.6-0.9-11.9-1.8 4.8-2.5-9-2.7 7.9-1.1 0.1-1.7-8.8-1.3 3.6-3.7 6.6-0.8 6 3.8 7-3 5.1 1.5 7.3-2.9 7 0.4z" id="IS" name="Iceland">
 </path>
 <path d="M1111.1 147.6l1 2.7-3.6 2-0.5 3.4-4.8 2.3-4.7 0-1.4-1.9-2.5-0.7-0.6-1.5 0.2-1.7-2.2-0.9-5.1-1.1-1.7-5.1 5.1-1.8 7.9 0.4 4.5-0.6 0.9 1.2 2.5 0.4 5 2.9z" id="LT" name="Lithuania">
 </path>
 <path d="M1016.9 185.4l-1.4 0.1-1.1-0.5 0.4-3.5 1.3-0.2 1 1.4-0.2 2.7z" id="LU" name="Luxembourg">
 </path>
 <path d="M1112.8 136.5l2.5 1.3 1 2.9 2.1 3.6-4.6 2.3-2.7 1-5-2.9-2.5-0.4-0.9-1.2-4.5 0.6-7.9-0.4-5.1 1.8-0.5-4.5 1.7-3.8 4.1-2 4.4 4.5 3.7-0.2 0.1-4.6 3.8-1 2.1 0.7 4.4 2.2 3.8 0.1z" id="LV" name="Latvia">
 </path>
 <path d="M1129.4 210.3l-1.3-2.9 0.2-2.7-0.6-2.7-3.4-3.8-2-2.6-1.8-1.8-1.6-0.7 1.1-0.9 3.2-0.6 4 1.9 2 0.3 2.6 1.7-0.1 2.1 2 1 1.1 2.6 2 1.6-0.2 1 1 0.6-1.3 0.5-3-0.2-0.6-0.9-1 0.5 0.6 1.1-1.1 2.1-0.6 2.1-1.2 0.7z" id="MD" name="Moldova">
 </path>
 <path d="M1105.5 236.6l-1 0.2-0.8 1.1-2.8-0.1-1.8 1.4-3.4 0.5-2.3-1.5-1-2.7 0.5-2.2 0.7 0.1 0.1-1.3 2.9-1 1.2-0.3 1.7-0.3 2.4-0.2 2.8 2.1 0.8 4.2z" id="MK" name="Macedonia">
 </path>
 <path d="M1090.6 227.2l-0.8 1.4-1.4 0.6-0.4-1.2-1.9 3.1 0.5 2.1-1.1-0.5-1.7-2.1-2.3-1.3 0.5-1 0.4-3.5 1.6-1.5 0.9-0.6 1.4 1.1 0.9 0.9 1.7 0.7 2.1 1.3-0.4 0.5z" id="ME" name="Montenegro">
 </path>
 <path d="M1079.9 154.8l5.9 0.7 8.8-0.1 2.5 0.7 1.4 1.9 0.6 2.7 1.7 2.3 0.4 2.4-2.8 1.3 1.9 2.8 0.5 2.8 3.2 5.4-0.3 1.7-2.3 0.7-3.8 5.2 1.6 2.8-1.1-0.4-5-2.4-3.5 0.9-2.4-0.6-2.8 1.3-2.7-2.2-1.9 0.9-0.3-0.4-2.6-3.1-3.7-0.3-0.7-2-3.4-0.7-0.6 1.6-2.8-1.3 0.2-1.7-3.7-0.5-2.5-2-2.4-3.9 0.2-2.2-1.5-3.3-1.9-2.1 1.2-1.7-1.4-3.1 3.1-1.8 7.1-2.8 5.8-2 4.8 1 0.6 1.5 4.6 0z" id="PL" name="Poland">
 </path>
 <path d="M1118.9 193.1l1.6 0.7 1.8 1.8 2 2.6 3.4 3.8 0.6 2.7-0.2 2.7 1.3 2.9 2.4 1.2 2.3-1.1 2.4 1.1 0.4 1.7-2.3 1.3-1.6-0.6-0.4 7.7-3.1-0.7-4-2.3-5.9 1.5-2.3 1.6-7.6-0.4-4-0.9-1.9 0.4-1.8-2.6-1-1.1 1-1.1-1.3-0.7-1.5 1.4-3.1-1.9-0.7-2.6-3.2-1.4-0.8-2.1-3-2.4 3.9-1.2 2.6-4.3 1.9-4.2 2.9-1.3 2-1.4 3.2 0.7 3.2 0 2.5 1.6 1.6-1 3.6-0.6 1-1.5 2.1 0z" id="RO" name="Romania">
 </path>
 <path d="M1102 218.2l-1.1 1.4 0.7 2.4 2.8 2.7-1.8 2-0.6 2 0.6 0.8-0.7 0.8-2.4 0.2-1.7 0.3-0.3-0.5 0.6-0.7 0.4-1.6-0.7 0.1-1.1-1.2-0.9-0.3-0.8-1-1-0.4-0.8-0.9-0.9 0.4-0.5 2.1-1.2 0.4 0.4-0.5-2.1-1.3-1.7-0.7-0.9-0.9-1.4-1.1 1.1-0.3 0.5-2.9-2.7-2.5 1.1-2.8-1.9 0.1 1.7-2.4-1.7-1.8-1.5-2.5 3.7-1.6 3.2 0.3 3 2.4 0.8 2.1 3.2 1.4 0.7 2.6 3.1 1.9 1.5-1.4 1.3 0.7-1 1.1 1 1.1z" id="RS" name="Serbia">
 </path>
 <path d="M1098.1 187.7l-1.2 1.7-0.7 2.5-1 0.6-5.5-1.9-1.6 0.4-1 1.5-2.3 0.8-0.6-0.4-2.3 0.9-1.9 0.2-0.3 1.3-4.1 0.7-1.9-0.6-2.7-1.7-0.7-2.1 0.3-0.8 0.6-1.4 2.2 0.1 1.6-0.6 0.1-0.6 0.9-0.3 0.2-1.4 1.1-0.3 0.7-1.1 1.5 0 0.3 0.4 1.9-0.9 2.7 2.2 2.8-1.3 2.4 0.6 3.5-0.9 5 2.4z" id="SK" name="Slovakia">
 </path>
 <path d="M1069.8 203.9l-3.9 1.7-0.3 2.5-1.7 0.7 0.1 1.7-2-0.1-1.8-1-0.8 1-3.6-0.2 1.1-0.5-1.4-2.7 0.4-3.1 4.2 0.5 2.4-1.5 4.4-0.1 0.9-1.1 0.8 0.1 1.2 2.1z" id="SI" name="Slovenia">
 </path>
 <path d="M1088.2 87l-7 1.6-3.5 3.9 1.3 3.5-6.2 4.5-7.8 5-2.1 8.1 3.7 4.1 4.8 3.3-3.3 6.6-4.6 1.4-0.6 10-2.1 5.7-5.7-0.6-2.2 4.8-5.5 0.3-1.9-5.7-4.5-6.9-4.2-8.4 1.8-3.4 3.4-4 0.8-6.9-3.1-2.9-1-7.7 2.4-5.4 4.3 0.1 1.3-2.2-1.8-2 5.7-7.9 3.4-6.1 2.3-3.9 4 0 0.6-3.1 8 0.9-0.1-3.6 2.6-0.2 6 2.7 7.2 3.7 1.8 8.5 1.8 2.2z" id="SE" name="Sweden">
 </path>
 <path d="M1157.2 174.6l2.3 2.7 0.1 1.2 6.7 2.2 3.6-1 3.6 2.9 2.9-0.1 7.7 2 0.4 1.9-1.3 3.2 1.8 3.5-0.3 2.1-4.8 0.4-2.2 1.8 0.4 2.7-3.9 0.5-3 2.1-4.6 0.3-4 2.4 1 3.9 2.8 1.5 5.1-0.4-0.6 2.3-5.4 1.1-6.3 3.6-3.1-1.3 0.7-2.9-5.9-1.9 0.7-1.2 4.6-2.1-1.7-1.4-8.1-1.6-0.8-2.4-4.5 0.8-1.3 3.5-3.3 4.6-2.4-1.1-2.3 1.1-2.4-1.2 1.2-0.7 0.6-2.1 1.1-2.1-0.6-1.1 1-0.5 0.6 0.9 3 0.2 1.3-0.5-1-0.6 0.2-1-2-1.6-1.1-2.6-2-1 0.1-2.1-2.6-1.7-2-0.3-4-1.9-3.2 0.6-1.1 0.9-2.1 0-1 1.5-3.6 0.6-1.6 1-2.5-1.6-3.2 0-3.2-0.7-2 1.4-0.5-1.7-3-1.7 0.7-2.5 1.2-1.7 1.1 0.4-1.6-2.8 3.8-5.2 2.3-0.7 0.3-1.7-3.2-5.4 2.3-0.3 2.4-1.6 3.8-0.2 4.9 0.5 5.7 1.5 3.9 0.1 1.9 0.9 1.7-1.1 1.5 1.5 4.3-0.3 2.1 0.6-0.3-3.1 1.3-1.4 4.1-0.3 1.8 0.2 1-1.4 1.5 0.3 4.9-0.6 3.8 3.5-0.9 1.3 0.8 1.9 3.9 0.3z" id="UA" name="Ukraine" class="available-country">
 </path>
 <path d="M1097.8 230.8l-1.2 0.3-2.9 1-0.1 1.3-0.7-0.1-0.6-2.3-1.3-0.7-1.2-1.7 0.8-1.4 1.2-0.4 0.5-2.1 0.9-0.4 0.8 0.9 1 0.4 0.8 1 0.9 0.3 1.1 1.2 0.7-0.1-0.4 1.6-0.6 0.7 0.3 0.5z" id="XK" name="Kosovo">
 </path>
 <path d="M1016.5 177.1l-2.8-1.5-3.1-2.7-4.5 1.3-3.6-0.5 2.5-1.7 4-9 6.5-2.6 4 0.2 0.9 2.1-0.9 5.6-1.2 2.3-2.9 0 1.1 6.5z" id="NL" name="Netherlands">
 </path>
 <path d="M946.9 263.7l-2.2 1.6-2.8-0.9-2.7 0.7 0.9-5-0.3-3.9-2.4-0.6-1.1-2.4 0.5-4.2 2.2-2.3 0.5-2.6 1.2-3.8 0-2.7-0.9-2.3-0.2-2.2 1.9-1.6 2.2-0.9 1.2 3.1 3 0 0.9-0.8 3.1 0.2 1.3 3.2-2.4 1.7-0.3 5-0.8 0.9-0.3 3.1-2.3 0.5 2 3.8-1.6 4.2 1.8 1.9-0.8 1.7-2 2.4 0.4 2.2z" id="PT" name="Portugal">
 </path>
 <path d="M976.6 223.4l2 2.4 9.5 2.9 1.9-1.4 5.8 2.9 5.9-0.8 0.4 3.7-4.9 4.2-6.6 1.4-0.5 2.1-3.2 3.5-2 5.2 2 3.7-3 2.8-1.2 4.2-4 1.3-3.7 4.9-6.8 0.1-5-0.1-3.4 2.2-2.1 2.4-2.6-0.5-1.9-2.2-1.4-3.6-4.9-1-0.4-2.2 2-2.4 0.8-1.7-1.8-1.9 1.6-4.2-2-3.8 2.3-0.5 0.3-3.1 0.8-0.9 0.3-5 2.4-1.7-1.3-3.2-3.1-0.2-0.9 0.8-3 0-1.2-3.1-2.2 0.9-1.9 1.6 0.5-4.5-2-2.7 7.4-4.6 6.2 1.1 6.9 0 5.4 1.1 4.3-0.4 8.3 0.3z" id="ES" name="Spain" class="available-country">
 </path>
 <path d="M602 424.6l-0.2 0-0.1-0.5 0.1-0.3-0.1-0.3-0.4-0.1-0.3-0.3 0.1-0.3 1.2 0.6-0.1 0.2 0 0.4-0.2 0.2 0 0.4z" id="BQBO" name="Netherlands">
 </path>
 <circle cx="997.9" cy="189.1" id="0">
 </circle>
 <circle cx="673.5" cy="724.1" id="1">
 </circle>
 <circle cx="1798.2" cy="719.3" id="2">
 </circle>
</svg>