<svg viewBox="0 0 360 360" xmlns="http://www.w3.org/2000/svg">
  <!-- Cream Kratom Flower with layered petals -->
  
  <!-- Outer layer petals (lightest) - 24 petals, step 15° -->
  <g fill="#ffecd4" transform="translate(180, 180)">
    <path d="M0,-160 Q14,-130 7,-85 Q0,-70 -7,-85 Q-14,-130 0,-160Z" />
    <path d="M0,-160 Q14,-130 7,-85 Q0,-70 -7,-85 Q-14,-130 0,-160Z" transform="rotate(15)" />
    <path d="M0,-160 Q14,-130 7,-85 Q0,-70 -7,-85 Q-14,-130 0,-160Z" transform="rotate(30)" />
    <path d="M0,-160 Q14,-130 7,-85 Q0,-70 -7,-85 Q-14,-130 0,-160Z" transform="rotate(45)" />
    <path d="M0,-160 Q14,-130 7,-85 Q0,-70 -7,-85 Q-14,-130 0,-160Z" transform="rotate(60)" />
    <path d="M0,-160 Q14,-130 7,-85 Q0,-70 -7,-85 Q-14,-130 0,-160Z" transform="rotate(75)" />
    <path d="M0,-160 Q14,-130 7,-85 Q0,-70 -7,-85 Q-14,-130 0,-160Z" transform="rotate(90)" />
    <path d="M0,-160 Q14,-130 7,-85 Q0,-70 -7,-85 Q-14,-130 0,-160Z" transform="rotate(105)" />
    <path d="M0,-160 Q14,-130 7,-85 Q0,-70 -7,-85 Q-14,-130 0,-160Z" transform="rotate(120)" />
    <path d="M0,-160 Q14,-130 7,-85 Q0,-70 -7,-85 Q-14,-130 0,-160Z" transform="rotate(135)" />
    <path d="M0,-160 Q14,-130 7,-85 Q0,-70 -7,-85 Q-14,-130 0,-160Z" transform="rotate(150)" />
    <path d="M0,-160 Q14,-130 7,-85 Q0,-70 -7,-85 Q-14,-130 0,-160Z" transform="rotate(165)" />
    <path d="M0,-160 Q14,-130 7,-85 Q0,-70 -7,-85 Q-14,-130 0,-160Z" transform="rotate(180)" />
    <path d="M0,-160 Q14,-130 7,-85 Q0,-70 -7,-85 Q-14,-130 0,-160Z" transform="rotate(195)" />
    <path d="M0,-160 Q14,-130 7,-85 Q0,-70 -7,-85 Q-14,-130 0,-160Z" transform="rotate(210)" />
    <path d="M0,-160 Q14,-130 7,-85 Q0,-70 -7,-85 Q-14,-130 0,-160Z" transform="rotate(225)" />
    <path d="M0,-160 Q14,-130 7,-85 Q0,-70 -7,-85 Q-14,-130 0,-160Z" transform="rotate(240)" />
    <path d="M0,-160 Q14,-130 7,-85 Q0,-70 -7,-85 Q-14,-130 0,-160Z" transform="rotate(255)" />
    <path d="M0,-160 Q14,-130 7,-85 Q0,-70 -7,-85 Q-14,-130 0,-160Z" transform="rotate(270)" />
    <path d="M0,-160 Q14,-130 7,-85 Q0,-70 -7,-85 Q-14,-130 0,-160Z" transform="rotate(285)" />
    <path d="M0,-160 Q14,-130 7,-85 Q0,-70 -7,-85 Q-14,-130 0,-160Z" transform="rotate(300)" />
    <path d="M0,-160 Q14,-130 7,-85 Q0,-70 -7,-85 Q-14,-130 0,-160Z" transform="rotate(315)" />
    <path d="M0,-160 Q14,-130 7,-85 Q0,-70 -7,-85 Q-14,-130 0,-160Z" transform="rotate(330)" />
    <path d="M0,-160 Q14,-130 7,-85 Q0,-70 -7,-85 Q-14,-130 0,-160Z" transform="rotate(345)" />
  </g>
  
  <!-- Middle layer petals (medium) - 18 petals, step 20°, offset 10° to sit between outer -->
  <g fill="#f5dfc5" transform="translate(180, 180)">
    <path d="M0,-120 Q18,-95 10,-60 Q0,-45 -10,-60 Q-18,-95 0,-120Z" transform="rotate(10)" />
    <path d="M0,-120 Q18,-95 10,-60 Q0,-45 -10,-60 Q-18,-95 0,-120Z" transform="rotate(30)" />
    <path d="M0,-120 Q18,-95 10,-60 Q0,-45 -10,-60 Q-18,-95 0,-120Z" transform="rotate(50)" />
    <path d="M0,-120 Q18,-95 10,-60 Q0,-45 -10,-60 Q-18,-95 0,-120Z" transform="rotate(70)" />
    <path d="M0,-120 Q18,-95 10,-60 Q0,-45 -10,-60 Q-18,-95 0,-120Z" transform="rotate(90)" />
    <path d="M0,-120 Q18,-95 10,-60 Q0,-45 -10,-60 Q-18,-95 0,-120Z" transform="rotate(110)" />
    <path d="M0,-120 Q18,-95 10,-60 Q0,-45 -10,-60 Q-18,-95 0,-120Z" transform="rotate(130)" />
    <path d="M0,-120 Q18,-95 10,-60 Q0,-45 -10,-60 Q-18,-95 0,-120Z" transform="rotate(150)" />
    <path d="M0,-120 Q18,-95 10,-60 Q0,-45 -10,-60 Q-18,-95 0,-120Z" transform="rotate(170)" />
    <path d="M0,-120 Q18,-95 10,-60 Q0,-45 -10,-60 Q-18,-95 0,-120Z" transform="rotate(190)" />
    <path d="M0,-120 Q18,-95 10,-60 Q0,-45 -10,-60 Q-18,-95 0,-120Z" transform="rotate(210)" />
    <path d="M0,-120 Q18,-95 10,-60 Q0,-45 -10,-60 Q-18,-95 0,-120Z" transform="rotate(230)" />
    <path d="M0,-120 Q18,-95 10,-60 Q0,-45 -10,-60 Q-18,-95 0,-120Z" transform="rotate(250)" />
    <path d="M0,-120 Q18,-95 10,-60 Q0,-45 -10,-60 Q-18,-95 0,-120Z" transform="rotate(270)" />
    <path d="M0,-120 Q18,-95 10,-60 Q0,-45 -10,-60 Q-18,-95 0,-120Z" transform="rotate(290)" />
    <path d="M0,-120 Q18,-95 10,-60 Q0,-45 -10,-60 Q-18,-95 0,-120Z" transform="rotate(310)" />
    <path d="M0,-120 Q18,-95 10,-60 Q0,-45 -10,-60 Q-18,-95 0,-120Z" transform="rotate(330)" />
    <path d="M0,-120 Q18,-95 10,-60 Q0,-45 -10,-60 Q-18,-95 0,-120Z" transform="rotate(350)" />
  </g>
  
  <!-- Inner layer petals (darkest) - 15 petals, step 24°, offset to sit between middle -->
  <g fill="#ebcfb3" transform="translate(180, 180)">
    <path d="M0,-85 Q15,-65 8,-40 Q0,-28 -8,-40 Q-15,-65 0,-85Z" transform="rotate(0)" />
    <path d="M0,-85 Q15,-65 8,-40 Q0,-28 -8,-40 Q-15,-65 0,-85Z" transform="rotate(24)" />
    <path d="M0,-85 Q15,-65 8,-40 Q0,-28 -8,-40 Q-15,-65 0,-85Z" transform="rotate(48)" />
    <path d="M0,-85 Q15,-65 8,-40 Q0,-28 -8,-40 Q-15,-65 0,-85Z" transform="rotate(72)" />
    <path d="M0,-85 Q15,-65 8,-40 Q0,-28 -8,-40 Q-15,-65 0,-85Z" transform="rotate(96)" />
    <path d="M0,-85 Q15,-65 8,-40 Q0,-28 -8,-40 Q-15,-65 0,-85Z" transform="rotate(120)" />
    <path d="M0,-85 Q15,-65 8,-40 Q0,-28 -8,-40 Q-15,-65 0,-85Z" transform="rotate(144)" />
    <path d="M0,-85 Q15,-65 8,-40 Q0,-28 -8,-40 Q-15,-65 0,-85Z" transform="rotate(168)" />
    <path d="M0,-85 Q15,-65 8,-40 Q0,-28 -8,-40 Q-15,-65 0,-85Z" transform="rotate(192)" />
    <path d="M0,-85 Q15,-65 8,-40 Q0,-28 -8,-40 Q-15,-65 0,-85Z" transform="rotate(216)" />
    <path d="M0,-85 Q15,-65 8,-40 Q0,-28 -8,-40 Q-15,-65 0,-85Z" transform="rotate(240)" />
    <path d="M0,-85 Q15,-65 8,-40 Q0,-28 -8,-40 Q-15,-65 0,-85Z" transform="rotate(264)" />
    <path d="M0,-85 Q15,-65 8,-40 Q0,-28 -8,-40 Q-15,-65 0,-85Z" transform="rotate(288)" />
    <path d="M0,-85 Q15,-65 8,-40 Q0,-28 -8,-40 Q-15,-65 0,-85Z" transform="rotate(312)" />
    <path d="M0,-85 Q15,-65 8,-40 Q0,-28 -8,-40 Q-15,-65 0,-85Z" transform="rotate(336)" />
  </g>
  
  <!-- Center layer petals (innermost) - 12 petals, step 30°, offset 15° to fill the center -->
  <g fill="#e0c4a8" transform="translate(180, 180)">
    <path d="M0,-45 Q10,-32 5,-18 Q0,-10 -5,-18 Q-10,-32 0,-45Z" transform="rotate(15)" />
    <path d="M0,-45 Q10,-32 5,-18 Q0,-10 -5,-18 Q-10,-32 0,-45Z" transform="rotate(45)" />
    <path d="M0,-45 Q10,-32 5,-18 Q0,-10 -5,-18 Q-10,-32 0,-45Z" transform="rotate(75)" />
    <path d="M0,-45 Q10,-32 5,-18 Q0,-10 -5,-18 Q-10,-32 0,-45Z" transform="rotate(105)" />
    <path d="M0,-45 Q10,-32 5,-18 Q0,-10 -5,-18 Q-10,-32 0,-45Z" transform="rotate(135)" />
    <path d="M0,-45 Q10,-32 5,-18 Q0,-10 -5,-18 Q-10,-32 0,-45Z" transform="rotate(165)" />
    <path d="M0,-45 Q10,-32 5,-18 Q0,-10 -5,-18 Q-10,-32 0,-45Z" transform="rotate(195)" />
    <path d="M0,-45 Q10,-32 5,-18 Q0,-10 -5,-18 Q-10,-32 0,-45Z" transform="rotate(225)" />
    <path d="M0,-45 Q10,-32 5,-18 Q0,-10 -5,-18 Q-10,-32 0,-45Z" transform="rotate(255)" />
    <path d="M0,-45 Q10,-32 5,-18 Q0,-10 -5,-18 Q-10,-32 0,-45Z" transform="rotate(285)" />
    <path d="M0,-45 Q10,-32 5,-18 Q0,-10 -5,-18 Q-10,-32 0,-45Z" transform="rotate(315)" />
    <path d="M0,-45 Q10,-32 5,-18 Q0,-10 -5,-18 Q-10,-32 0,-45Z" transform="rotate(345)" />
  </g>
  
  <!-- Center core circle -->
  <circle cx="180" cy="180" r="12" fill="#d5b89c" />
</svg>
